<?xml version="1.0" standalone="no"?>
<!DOCTYPE svg PUBLIC "-//W3C//DTD SVG 20010904//EN"
 "http://www.w3.org/TR/2001/REC-SVG-20010904/DTD/svg10.dtd">
<svg version="1.0" xmlns="http://www.w3.org/2000/svg"
 width="243.000000pt" height="243.000000pt" viewBox="0 0 243.000000 243.000000"
 preserveAspectRatio="xMidYMid meet">
<metadata>
Created by potrace 1.11, written by Peter Selinger 2001-2013
</metadata>
<g transform="translate(0.000000,243.000000) scale(0.100000,-0.100000)"
fill="#000000" stroke="none">
<path d="M1888 2282 l-146 -144 0 -89 -1 -89 345 0 344 0 0 233 0 232 -197 1
-198 0 -147 -144z"/>
<path d="M1308 1704 l-145 -144 -1 -72 c0 -40 1 -80 4 -89 4 -15 60 -17 634
-17 l630 0 0 232 0 233 -488 0 -489 0 -145 -143z"/>
<path d="M726 1123 l-147 -147 3 -85 3 -86 923 0 922 0 0 232 0 233 -779 0
-779 0 -146 -147z"/>
<path d="M151 553 l-143 -142 0 -85 c-1 -48 2 -89 5 -93 5 -4 2208 -8 2385 -4
l32 1 0 230 0 230 -27 1 c-16 0 -496 1 -1069 2 l-1041 2 -142 -142z"/>
<path d="M9 103 c-1 -17 -1 -80 0 -93 1 -7 412 -10 1211 -10 l1210 0 0 55 c0
37 -4 55 -12 56 -7 0 -552 1 -1210 2 -952 2 -1198 -1 -1199 -10z"/>
</g>
</svg>
